PathFileType	4	(X/Y/Z)	c:/Users/goper/Files/vsCode/490R/osim_files/C15/C15_Static03.trc
DataRate	CameraRate	NumFrames	NumMarkers	Units                	OrigDataRate	OrigDataStartFrame	OrigNumFrames
250.00	250.00	5	36	mm	250.0	837	1115
                Frame#	Time	LPSIS			LASIS			LTH1			LTH2			LTH3			LTH4			LLFE			LMFE			LSH1			LSH2			LSH3			LSH4			LLMAL			LMMAL			LCAL			LMTP5			LTOE			LMTP1			RPSIS			RASIS			RTH1			RTH2			RTH3			RTH4			RLFE			RMFE			RSH1			RSH2			RSH3			RSH4			RLMAL			RMMAL			RCAL			RMTP1			RTOE			RMTP5		
		X1	Y1	Z1	X2	Y2	Z2	X3	Y3	Z3	X4	Y4	Z4	X5	Y5	Z5	X6	Y6	Z6	X7	Y7	Z7	X8	Y8	Z8	X9	Y9	Z9	X10	Y10	Z10	X11	Y11	Z11	X12	Y12	Z12	X13	Y13	Z13	X14	Y14	Z14	X15	Y15	Z15	X16	Y16	Z16	X17	Y17	Z17	X18	Y18	Z18	X19	Y19	Z19	X20	Y20	Z20	X21	Y21	Z21	X22	Y22	Z22	X23	Y23	Z23	X24	Y24	Z24	X25	Y25	Z25	X26	Y26	Z26	X27	Y27	Z27	X28	Y28	Z28	X29	Y29	Z29	X30	Y30	Z30	X31	Y31	Z31	X32	Y32	Z32	X33	Y33	Z33	X34	Y34	Z34	X35	Y35	Z35	X36	Y36	Z36

837	3.34400	-417.61057	1028.18274	402.19632	-253.39145	1006.63593	328.91064	-343.97211	634.22760	251.11485	-348.96161	586.88342	264.42303	-292.10687	637.40051	253.84105	-294.43427	592.08221	260.44699	-331.73486	499.70853	277.36127	-326.74298	476.21054	396.36011	-403.26395	396.18170	259.56985	-406.60580	353.82971	250.38461	-341.86923	387.81244	256.80563	-353.05954	345.08484	247.89293	-402.16498	85.22798	288.63654	-382.16260	104.06815	379.57306	-463.54257	58.55935	331.72083	-280.83075	35.96290	263.22089	-224.38321	58.57742	326.42368	-260.21756	38.79476	381.77872	-410.98917	1028.93030	522.18872	-253.51428	1002.51337	584.22089	-328.81897	641.87830	652.78296	-329.62628	595.29346	647.20190	-269.48273	636.18658	639.01862	-278.51849	590.17987	638.31317	-327.44583	496.95544	624.69843	-345.03375	473.78088	508.51639	-418.10770	400.22650	649.74158	-420.65561	357.12479	656.86609	-357.00043	388.33542	651.45392	-369.13724	348.48038	659.39105	-416.26202	84.73249	616.62201	-386.85971	102.97750	528.83411	-476.85840	58.76112	572.41736	-273.36139	37.68597	534.82965	-239.37010	55.44238	588.32617	-299.49463	31.00974	653.96887
838	3.34800	-417.65051	1028.18359	402.20587	-253.49986	1006.55219	328.90671	-344.00977	634.21588	251.16296	-349.01828	586.89874	264.44028	-292.12869	637.41418	253.85558	-294.41919	592.08728	260.44846	-331.78070	499.70517	277.36743	-326.81116	476.17874	396.35867	-403.33939	396.19458	259.60730	-406.63705	353.82346	250.37886	-341.89236	387.80685	256.82816	-353.11014	345.07794	247.90205	-402.18588	85.23291	288.62756	-382.18729	104.03402	379.57635	-463.56799	58.57246	331.70615	-280.84760	35.93428	263.24127	-224.39948	58.56691	326.43515	-260.24493	38.76682	381.79059	-411.05518	1028.91467	522.23114	-253.53317	1002.48755	584.26178	-328.87897	641.85925	652.79254	-329.64658	595.22205	647.18683	-269.52338	636.18359	639.04541	-278.56110	590.15967	638.34338	-327.52710	496.92041	624.67438	-345.04419	473.78882	508.53275	-418.12860	400.20715	649.75610	-420.64984	357.09302	656.91132	-356.74026	388.43445	651.55121	-369.18332	348.44974	659.41565	-416.26959	84.70871	616.66162	-386.85284	102.98437	528.83984	-476.86661	58.72239	572.44086	-273.34485	37.68401	534.85840	-239.38869	55.42394	588.34552	-299.52817	30.99086	653.99384
839	3.35200	-417.69238	1028.16199	402.21585	-253.47142	1006.66315	328.93497	-344.05225	634.22729	251.15839	-349.05786	586.88971	264.43787	-292.18747	637.43030	253.86104	-294.46927	592.12878	260.46359	-331.84528	499.72531	277.35745	-326.85660	476.17334	396.36987	-403.17471	396.36966	259.46844	-406.65732	353.82605	250.37463	-341.93207	387.81732	256.83972	-353.14560	345.10089	247.90926	-402.21298	85.24100	288.63855	-382.20688	104.02033	379.59689	-463.56165	58.51766	331.69662	-280.92456	35.82172	263.33859	-224.38887	58.57278	326.43600	-260.25540	38.75784	381.80109	-411.07770	1028.90588	522.25281	-253.58070	1002.48096	584.27429	-328.87967	641.84021	652.80811	-329.63821	595.20197	647.20306	-269.55341	636.17108	639.06927	-278.58679	590.15875	638.35327	-327.52744	496.89737	624.73218	-345.06757	473.79858	508.52954	-418.14706	400.18042	649.76202	-420.63809	357.07834	656.93335	-356.74152	388.45486	651.57086	-369.20847	348.45679	659.43359	-416.28818	84.69740	616.65857	-386.88699	102.98457	528.84113	-476.84348	58.69508	572.43555	-273.37772	37.67773	534.87006	-239.38971	55.44180	588.36084	-299.55377	30.97813	654.00000
840	3.35600	-417.68945	1028.14417	402.23270	-253.49582	1006.67059	328.94815	-344.08112	634.21765	251.16771	-349.11935	586.87921	264.43161	-292.19119	637.43646	253.85823	-294.48611	592.13586	260.44946	-331.89301	499.73041	277.38165	-326.85550	476.18677	396.36984	-403.32095	396.42786	259.37500	-406.71292	353.80728	250.41670	-341.94000	387.84363	256.81226	-353.13998	345.10526	247.90442	-402.22720	85.21907	288.64651	-382.20407	104.01012	379.58612	-463.56528	58.47377	331.71484	-280.93304	35.81730	263.33624	-224.39720	58.55537	326.44470	-260.25116	38.76032	381.78094	-411.02988	1028.85913	522.27020	-253.57986	1002.47504	584.27081	-328.87711	641.83960	652.79742	-329.66785	595.16125	647.18335	-269.53366	636.15259	639.06866	-278.57388	590.15289	638.35706	-327.51343	496.90189	624.73145	-345.08917	473.80252	508.53467	-418.15439	400.17908	649.74976	-420.62964	357.05673	656.92603	-356.76318	388.43149	651.57288	-369.18588	348.43961	659.42712	-416.27997	84.68070	616.65814	-386.88245	102.98152	528.82928	-476.81107	58.64815	572.44672	-273.36172	37.68242	534.86816	-239.16266	55.59339	588.41479	-299.54160	30.97620	653.99219
841	3.36000	-417.72678	1028.12720	402.25043	-253.53050	1006.67639	328.97345	-344.12668	634.22504	251.15958	-349.18640	586.89374	264.44672	-292.21735	637.43970	253.86810	-294.51675	592.13916	260.44760	-331.91428	499.72134	277.36774	-326.87329	476.16284	396.36847	-403.23138	396.34784	259.47083	-406.73544	353.79733	250.41493	-341.95966	387.82288	256.81992	-353.18701	345.09714	247.91946	-402.24768	85.23596	288.63156	-382.21704	103.99209	379.60406	-463.54752	58.45163	331.72437	-280.95087	35.79580	263.33768	-224.40530	58.54470	326.43729	-260.26083	38.74291	381.78784	-411.06946	1028.84509	522.28442	-253.58386	1002.47217	584.31329	-328.90308	641.79913	652.81342	-329.66528	595.15125	647.18243	-269.57065	636.13092	639.09998	-278.62711	590.13818	638.35638	-327.50128	496.88406	624.75903	-345.12674	473.82080	508.55020	-418.17963	400.14429	649.78809	-420.63794	357.02496	656.94592	-356.77188	388.42032	651.60681	-369.21579	348.43927	659.45544	-416.26242	84.67613	616.68378	-386.92075	102.97037	528.83344	-476.82126	58.62153	572.44562	-273.38263	37.64349	534.86908	-239.19980	55.47558	588.37018	-299.54611	30.95284	654.00562
